<svg xmlns="http://www.w3.org/2000/svg" xmlns:xlink="http://www.w3.org/1999/xlink" width="114.71" height="44.812" viewBox="0 0 114.71 44.812"><defs><style>.a,.l,.x{fill:#fff;}.b{fill:url(#a);}.c{fill:url(#b);}.d{fill:#b5b5b5;}.e{fill:#d3d3d3;}.f{fill:#dbdbdb;}.g{fill:#bfbfbf;}.h{fill:#a6a6a6;}.i{fill:#969696;}.j{fill:#cacaca;}.k{fill:#909090;}.l,.x{stroke:#fff;}.l,.m,.n,.o,.p,.q,.r,.s,.w,.x{stroke-miterlimit:10;}.l,.m,.n,.o,.p,.q,.r,.s,.w{stroke-width:0.015px;}.m{fill:#aaa;stroke:#aaa;}.n{fill:#bababa;stroke:#bababa;}.o{fill:#c9c9c9;stroke:#c9c9c9;}.p,.u{fill:#b0b0b0;}.p{stroke:#b0b0b0;}.q,.v{fill:#f7f7f7;}.q{stroke:#f7f7f7;}.r,.z{fill:#d9d9d9;}.r{stroke:#d9d9d9;}.aa,.s{fill:#a0a0a0;}.s{stroke:#a0a0a0;}.t{fill:silver;}.w,.y{fill:#919191;}.w{stroke:#919191;}.x{stroke-width:0.057px;}.ab{fill:#e3e3e3;}</style><linearGradient id="a" x1="0.612" y1="0.752" x2="0.392" y2="0.243" gradientUnits="objectBoundingBox"><stop offset="0" stop-color="#dbdbdb"/><stop offset="0.74" stop-color="#9e9e9e"/></linearGradient><linearGradient id="b" x1="0.388" y1="0.246" x2="0.603" y2="0.744" gradientUnits="objectBoundingBox"><stop offset="0" stop-color="#dbdbdb"/><stop offset="0.75" stop-color="#b8b8b8"/></linearGradient></defs><g transform="translate(57.355 22.406)"><g transform="translate(-57.355 -22.406)"><g transform="translate(61.051 32.347)"><path class="a" d="M464.582,253.458H460.9V245.1h3.709c1.576,0,2.57.782,2.57,2.212a1.855,1.855,0,0,1-.861,1.629,1.916,1.916,0,0,1,1.139,1.828A2.553,2.553,0,0,1,464.582,253.458Zm-.04-6.808H462.49v1.59h2.133c.676,0,.914-.318.914-.781s-.278-.821-.993-.821Zm.093,3.073H462.49v2.159h2.159a1.088,1.088,0,1,0-.013-2.172Z" transform="translate(-460.9 -244.981)"/><path class="a" d="M521.5,253.458l-1.444-3.007h-1.629v3.007H516.8V245.1h3.775a2.553,2.553,0,0,1,2.795,2.649,2.386,2.386,0,0,1-1.55,2.464l1.55,3.245Zm-.967-6.729h-2.119v2.146h2.119c.755,0,1.152-.358,1.152-1.086s-.424-1.06-1.139-1.06Z" transform="translate(-509.396 -244.981)"/><path class="a" d="M574,253.458V245.1h1.616v8.358Z" transform="translate(-559.019 -244.981)"/><path class="a" d="M596.853,252.81a3.745,3.745,0,0,1-3.153-1.51l1.166-1.073a2.6,2.6,0,0,0,2.066.954c.967,0,1.417-.278,1.417-.9s-.278-.782-1.8-1.139-2.53-.848-2.53-2.49,1.3-2.451,2.888-2.451a3.842,3.842,0,0,1,2.954,1.311l-1.166,1.166a2.454,2.454,0,0,0-1.841-.861c-.742,0-1.152.384-1.152.755s.344.689,1.629,1.007,2.7.768,2.7,2.583C600.032,251.737,599.065,252.81,596.853,252.81Z" transform="translate(-576.109 -244.2)"/><path class="a" d="M651.982,253.458H648.3V245.1h3.709c1.576,0,2.57.782,2.57,2.212a1.855,1.855,0,0,1-.861,1.629,1.916,1.916,0,0,1,1.139,1.828A2.553,2.553,0,0,1,651.982,253.458Zm-.04-6.808h-2.053v1.59h2.146c.676,0,.914-.318.914-.781s-.291-.821-.993-.821Zm.093,3.073h-2.146v2.159h2.159a1.088,1.088,0,1,0,0-2.172Z" transform="translate(-623.477 -244.981)"/><path class="a" d="M703.774,253.458l-.636-1.868h-2.967l-.636,1.868H697.8l3.1-8.358h1.576l3.073,8.358Zm-1.709-4.967c-.159-.49-.318-.993-.411-1.3-.079.3-.238.808-.411,1.3l-.517,1.51h1.854Z" transform="translate(-666.42 -244.981)"/><path class="a" d="M766.713,253.458l-2.98-4.557c-.2-.3-.464-.728-.57-.94,0,.3.026,1.364.026,1.828v3.669H761.6V245.1h1.55l2.874,4.424c.2.3.464.729.57.94,0-.3-.026-1.364-.026-1.828V245.1h1.6v8.358Z" transform="translate(-721.769 -244.981)"/><path class="a" d="M820.7,253.458V245.1h5.63v1.629h-4v1.444h2.331V249.8h-2.331v2.013H826.5v1.629Z" transform="translate(-773.041 -244.981)"/></g><g transform="translate(61.448 12.584)"><path class="a" d="M467.026,103.544a3.7,3.7,0,0,1-3.126-1.51l1.166-1.06a2.57,2.57,0,0,0,2.053.954c.954,0,1.4-.278,1.4-.9s-.278-.768-1.788-1.126-2.517-.834-2.517-2.477S465.5,95,467.092,95a3.8,3.8,0,0,1,2.927,1.3l-1.166,1.166a2.414,2.414,0,0,0-1.828-.848c-.742,0-1.152.384-1.152.742s.344.689,1.616.993,2.689.755,2.689,2.556C470.192,102.484,469.225,103.544,467.026,103.544Z" transform="translate(-463.9 -95)"/><path class="a" d="M519,104.279V96h1.6v8.292Z" transform="translate(-511.702 -95.868)"/><path class="a" d="M541.91,103.544c-2.106,0-3.51-1.656-3.51-4.278S539.87,95,541.963,95a3,3,0,0,1,3.047,2.066l-1.523.649a1.57,1.57,0,0,0-1.536-1.073c-1.205,0-1.894,1.086-1.894,2.623s.7,2.649,1.907,2.649,1.484-.53,1.576-1.258h-1.272V99.119h2.888v1.086A3.1,3.1,0,0,1,541.91,103.544Z" transform="translate(-528.532 -95)"/><path class="a" d="M596.41,103.544c-2.106,0-3.51-1.656-3.51-4.278S594.357,95,596.463,95a3,3,0,0,1,3.047,2.066l-1.523.649a1.57,1.57,0,0,0-1.536-1.073c-1.205,0-1.894,1.086-1.894,2.623s.7,2.649,1.907,2.649,1.484-.53,1.576-1.258h-1.285V99.119h2.888v1.086A3.088,3.088,0,0,1,596.41,103.544Z" transform="translate(-575.813 -95)"/><path class="a" d="M655.163,104.279l-1.431-2.98H652.1v2.98h-1.6V96h3.749a2.526,2.526,0,0,1,2.768,2.623,2.358,2.358,0,0,1-1.537,2.437l1.537,3.219Zm-.954-6.676H652.1v2.133h2.106c.742,0,1.152-.358,1.152-1.073S654.924,97.6,654.209,97.6Z" transform="translate(-625.783 -95.868)"/><path class="a" d="M706.634,104.279,706,102.438h-2.941l-.636,1.841H700.7L703.786,96h1.563l3.06,8.292Zm-1.7-4.927c-.159-.49-.318-.98-.4-1.285-.079.3-.238.808-.4,1.285l-.517,1.51h1.841Z" transform="translate(-669.334 -95.868)"/><path class="a" d="M767.378,101.351h-1.762v2.941H764V96h3.51a2.526,2.526,0,0,1,2.768,2.623A2.634,2.634,0,0,1,767.378,101.351Zm.079-3.749H765.6v2.133h1.868c.742,0,1.152-.358,1.152-1.073S768.172,97.6,767.457,97.6Z" transform="translate(-724.249 -95.868)"/><path class="a" d="M821.8,104.279v-3.47h-3.285v3.484H816.9V96h1.6v3.179h3.3V96h1.6v8.292Z" transform="translate(-770.142 -95.868)"/></g><g transform="translate(60.931 22.452)"><path class="a" d="M465.934,178.792l-.636-1.854h-2.941l-.636,1.854H460l3.073-8.292h1.563l3.06,8.292Zm-1.7-4.928c-.159-.49-.318-.98-.4-1.285-.079.3-.238.808-.4,1.285l-.53,1.51h1.841Z" transform="translate(-460 -170.367)"/><path class="a" d="M522.226,178.144a3.7,3.7,0,0,1-3.126-1.51l1.166-1.06a2.57,2.57,0,0,0,2.053.954c.954,0,1.4-.278,1.4-.9s-.278-.768-1.788-1.126-2.517-.834-2.517-2.477,1.285-2.424,2.874-2.424a3.8,3.8,0,0,1,2.927,1.3l-1.166,1.166a2.414,2.414,0,0,0-1.828-.848c-.742,0-1.152.384-1.152.742s.344.689,1.616.993,2.689.755,2.689,2.556C525.379,177.071,524.412,178.144,522.226,178.144Z" transform="translate(-511.272 -169.587)"/><path class="a" d="M573.3,178.792V170.5h1.6v8.292Z" transform="translate(-558.292 -170.367)"/><path class="a" d="M597.434,178.792l-.636-1.841h-2.941l-.636,1.841H591.5l3.073-8.292h1.563l3.06,8.292Zm-1.7-4.928c-.159-.49-.318-.98-.4-1.285-.08.3-.238.808-.4,1.285l-.517,1.51h1.841Z" transform="translate(-574.082 -170.367)"/><path class="a" d="M667.527,177.924c.04-2.848,1.6-4.08,3.431-4.967.636-.3.848-.636.848-.993s-.331-.834-1.232-.834a2.861,2.861,0,0,0-2.119.993l-.954-1.245a3.974,3.974,0,0,1,3.033-1.378c1.775,0,2.768.795,2.768,2.384,0,1.338-.649,1.921-1.921,2.57s-1.828,1.232-1.974,1.868h3.961v1.6Z" transform="translate(-640.015 -169.499)"/></g><g transform="translate(103.663 22.439)"><path class="a" d="M783.885,178.879v-5.987H782.6v-1.219c.834-.053,1.378-.4,1.523-1.073h1.232v8.292Z" transform="translate(-782.6 -170.441)"/><path class="a" d="M813.2,177.97v-1.616c1.722,0,2.821-.676,3.245-1.947a2.581,2.581,0,0,1-1.709.517,2.439,2.439,0,0,1-2.636-2.676,2.835,2.835,0,0,1,3.139-2.848c1.749,0,2.967,1.033,2.967,3.351S817.067,177.97,813.2,177.97Zm1.987-7.007c-.993,0-1.563.477-1.563,1.245s.556,1.232,1.5,1.232,1.55-.384,1.55-1.245-.5-1.245-1.484-1.245Z" transform="translate(-808.192 -169.4)"/></g><g transform="translate(94.642 22.465)"><path class="b" d="M724.99,179.3a1.047,1.047,0,0,0-.715-.384,5.572,5.572,0,0,0-3.1,1.007l-.755.53c-1.523,1.113-2.451,2.265-2.424,3.152a1.877,1.877,0,0,0,.093.225c.384.649,2.49.238,3.815-.848-3.351,1.47-2.689-.344-2.119-1.086S723.546,178.374,724.99,179.3Z" transform="translate(-717.533 -177.672)"/><path class="c" d="M721.4,189.252a1.047,1.047,0,0,0,.715.384,5.507,5.507,0,0,0,3.06-1.073s.53-.344.768-.517c1.523-1.113,2.464-2.265,2.451-3.153a.305.305,0,0,0-.08-.172c-.45-.6-2.49-.238-3.815.848,3.351-1.47,2.689.344,2.119,1.086S722.831,190.18,721.4,189.252Z" transform="translate(-720.486 -182.471)"/><g transform="translate(0.993 2.358)"><path class="d" d="M724.6,223.2l.6.066-.6.053Z" transform="translate(-724.255 -218.458)"/><path class="e" d="M722.344,221.725v.119L722,221.5Z" transform="translate(-722 -216.983)"/><path class="f" d="M724.6,224.1l1.523.768-.318.066Z" transform="translate(-724.255 -219.239)"/><path class="e" d="M725.2,223.7l.927.821-1.523-.768Z" transform="translate(-724.255 -218.892)"/><path class="d" d="M729.1,220.664l1.616-.464-.689,1.285Z" transform="translate(-728.159 -215.855)"/><path class="f" d="M774.05,188.446l-.4-1.046-.053.543Z" transform="translate(-766.765 -187.4)"/><path class="f" d="M773.6,191.4c0,.04.53,1.921.53,1.921l-.08-1.417Z" transform="translate(-766.765 -190.87)"/><path class="g" d="M769.869,191.4l-.569,1.02,1.1.914Z" transform="translate(-763.035 -190.87)"/><path class="d" d="M769.406,201.18l-.106-2.08,1.1.914Z" transform="translate(-763.035 -197.55)"/><path class="g" d="M761.5,200.146l1.139,1.033-.106-2.08Z" transform="translate(-756.268 -197.55)"/><path class="d" d="M758,208.947l.464-1.947,1.139,1.033Z" transform="translate(-753.231 -204.404)"/><path class="h" d="M750.9,208.046l.94.9L752.3,207Z" transform="translate(-747.072 -204.404)"/><path class="i" d="M741.3,215.6l2.212.2-.94-.9Z" transform="translate(-738.744 -211.257)"/><path class="d" d="M742.545,221.591,741.3,220.2l2.212.2Z" transform="translate(-738.744 -215.855)"/><path class="j" d="M736.1,221.485l1.934.106-1.245-1.391Z" transform="translate(-734.232 -215.855)"/><path class="f" d="M736.1,229.9l.887.424,1.047-.318Z" transform="translate(-734.232 -224.27)"/><path class="f" d="M733.7,229.966l1.205.358-.887-.424Z" transform="translate(-732.15 -224.27)"/><path class="f" d="M743.846,230.7l.782.093-1.828.225Z" transform="translate(-740.045 -224.964)"/><path class="f" d="M752.462,225.8l-1.762.649.781.093Z" transform="translate(-746.898 -220.714)"/><path class="e" d="M751.667,221.7l.795.543-1.762.649Z" transform="translate(-746.898 -217.157)"/><path class="e" d="M759.6,214.8l-.808,1.457-.795-.543Z" transform="translate(-753.231 -211.171)"/><path class="f" d="M764.808,214.8l.424.4L764,216.257Z" transform="translate(-758.437 -211.171)"/><path class="f" d="M771.093,206c0,.013-.569,1.576-.569,1.576l-.424-.4Z" transform="translate(-763.729 -203.536)"/><path class="f" d="M764,218.86l.159.119,1.073-1.179Z" transform="translate(-758.437 -213.773)"/><path class="f" d="M756.6,226.542l1.139-.623-.159-.119Z" transform="translate(-752.017 -220.714)"/></g><path class="e" d="M759.3,177.311l.848-.411.04.4Z" transform="translate(-753.366 -175.933)"/><path class="f" d="M765.74,177.3l.636.265-.676-.662Z" transform="translate(-758.918 -175.933)"/><path class="e" d="M716.037,209.79l-.026.411-.411-.9Z" transform="translate(-715.454 -204.041)"/><path class="f" d="M714.646,203.661l-.146-.861.583,1.351Z" transform="translate(-714.5 -198.402)"/><path class="e" d="M714.5,201.238l.437-.238.146,1.59Z" transform="translate(-714.5 -196.841)"/><path class="d" d="M717.8,201l.636.437-.49,1.152Z" transform="translate(-717.363 -196.841)"/><path class="h" d="M717.8,193.192l.887-1.192-.252,1.629Z" transform="translate(-717.363 -189.033)"/><path class="k" d="M722.938,192l1.205.159-1.444,1.484Z" transform="translate(-721.614 -189.033)"/><path class="h" d="M724.5,184.192,726.037,183l-.344,1.338Z" transform="translate(-723.175 -181.225)"/><path class="k" d="M733.844,183l1.325.238-1.669,1.1Z" transform="translate(-730.983 -181.225)"/><path class="d" d="M746.285,177.9l1.563.278-1.749.636Z" transform="translate(-741.914 -176.801)"/><path class="e" d="M747.5,173.129l.742-.729.821,1.007Z" transform="translate(-743.129 -172.029)"/><path class="f" d="M753.1,172.4l1.669.6-.848.411Z" transform="translate(-747.987 -172.029)"/><path class="f" d="M753.1,171.272l1.669.6-1.3-.768Z" transform="translate(-747.987 -170.901)"/><path class="f" d="M746.444,169.8,745,169.6l1.073.371Z" transform="translate(-740.96 -169.6)"/><path class="f" d="M740.055,169.6l-.755.5,1.828-.132Z" transform="translate(-736.015 -169.6)"/><path class="e" d="M739.3,172.532l1.086.6.742-.729Z" transform="translate(-736.015 -172.029)"/><path class="d" d="M736.524,173.4l-.424,1.272,1.51-.676Z" transform="translate(-733.239 -172.897)"/><path class="e" d="M728.2,173.4l-1.7.887,1.272.384Z" transform="translate(-724.91 -172.897)"/><path class="d" d="M724.765,180.1l-.265,1.576,1.537-1.192Z" transform="translate(-723.175 -178.709)"/><path class="e" d="M719.213,180.1l-1.113,1.444.848.132Z" transform="translate(-717.623 -178.709)"/><path class="d" d="M717.84,191l-.04,1.325.887-1.192Z" transform="translate(-717.363 -188.165)"/><path class="e" d="M714.977,191l-.477,1.563.437-.238Z" transform="translate(-714.5 -188.165)"/><path class="f" d="M714.977,191l-.3.093-.172,1.47Z" transform="translate(-714.5 -188.165)"/><path class="f" d="M715.8,182.678l.755-1.378-.45,1.285Z" transform="translate(-715.628 -179.75)"/><path class="f" d="M718.1,181.544l.45-1.285.662-.159Z" transform="translate(-717.623 -178.709)"/><path class="f" d="M722.162,173.854l.755-.954-1.417,1.113Z" transform="translate(-720.573 -172.463)"/><path class="f" d="M727.255,172.9l.94.066-1.7.887Z" transform="translate(-724.91 -172.463)"/><path class="f" d="M732.2,170.037l1.7-.437-.755.5Z" transform="translate(-729.856 -169.6)"/><path class="h" d="M736.1,178.576l1.51-.676-.186.914Z" transform="translate(-733.239 -176.801)"/></g><path class="l" d="M430.011,126.9l-.411,1.351,1.762-1.126Z" transform="translate(-372.695 -110.091)"/><path class="l" d="M426.1,111.5l.874,2.04,1.351.225Z" transform="translate(-369.659 -96.731)"/><path class="l" d="M420.3,112.652l.768-1.152.874,2.04Z" transform="translate(-364.627 -96.731)"/><path class="m" d="M421.532,122.439,420.3,120.2l1.642.887Z" transform="translate(-364.627 -104.278)"/><path class="n" d="M396.5,120.756l4.384,1.682-1.232-2.239Z" transform="translate(-343.98 -104.278)"/><path class="l" d="M416.3,109.3l.53,1.444.768-1.152Z" transform="translate(-361.157 -94.822)"/><path class="l" d="M417.267,101.9l.331,1.272-1.3-.291Z" transform="translate(-361.157 -88.402)"/><path class="o" d="M396.5,111.3l2.623-2,.53,1.444Z" transform="translate(-343.98 -94.822)"/><path class="l" d="M408.939,90.015,406.7,88.2l1.272,2.795Z" transform="translate(-352.829 -76.517)"/><path class="o" d="M401.7,62.1l.662,3.457.649-1.656Z" transform="translate(-348.491 -53.874)"/><path class="l" d="M397.4,64.59l1.232.967L397.97,62.1Z" transform="translate(-344.761 -53.874)"/><path class="l" d="M395,82.132l1.55-.265-1.232-.967Z" transform="translate(-342.678 -70.184)"/><path class="n" d="M397.821,90.995,395,88.465l1.55-.265Z" transform="translate(-342.678 -76.517)"/><path class="n" d="M388.345,111.3l-1.245-.623,3.868-1.378Z" transform="translate(-335.825 -94.822)"/><path class="o" d="M388.146,90.2,387.1,94.108l3.868-1.378Z" transform="translate(-335.825 -78.252)"/><path class="l" d="M359.1,91.79l3.709,2.318,1.046-3.908Z" transform="translate(-311.534 -78.252)"/><path class="o" d="M360.063,120.323,354.5,123.2l4.318-3.5Z" transform="translate(-307.543 -103.845)"/><path class="p" d="M353.982,102.2l-.782,3.59,4.49-1.272Z" transform="translate(-306.415 -88.663)"/><path class="q" d="M353.372,123.2l-.172-2.225,4.49-1.272Z" transform="translate(-306.415 -103.845)"/><path class="r" d="M339.233,102.2l-3.033,2.013,2.252,1.576Z" transform="translate(-291.667 -88.663)"/><path class="s" d="M342.354,131.525l-1.854-.119,1.682-2.106Z" transform="translate(-295.398 -112.173)"/><path class="q" d="M336.2,117.4l.57,3.682,1.682-2.106Z" transform="translate(-291.667 -101.849)"/><path class="l" d="M316.244,82.594,309.7,79.6l3.51,5.007Z" transform="translate(-268.677 -69.056)"/><path class="l" d="M310.535,52.4,309.7,56,316.244,59Z" transform="translate(-268.677 -45.459)"/><path class="l" d="M262.8,55.182l6.212.821.834-3.6Z" transform="translate(-227.99 -45.459)"/><path class="a" d="M241.3,45.1l2.848,3.457,7.047-2.782Z" transform="translate(-209.337 -39.126)"/><path class="t" d="M203.2,52.033l4.874-6.133,2.848,3.47Z" transform="translate(-176.284 -39.82)"/><path class="a" d="M176.7,51.933l3.113,1.1,4.875-6.133Z" transform="translate(-153.294 -40.688)"/><path class="u" d="M174.783,91.579l.543-4.093L172.2,86.4Z" transform="translate(-149.39 -74.956)"/><path class="v" d="M145.3,94.916l5.457-2.437L148.174,87.3Z" transform="translate(-126.054 -75.736)"/><path class="u" d="M122.21,105.422l3.245-6.822-4.755,3.6Z" transform="translate(-104.712 -85.539)"/><path class="a" d="M74.4,143.529l7.073-5.471L80.03,134.8Z" transform="translate(-64.545 -116.944)"/><path class="a" d="M68.084,182.09,66.6,179.984l7.073-5.484Z" transform="translate(-57.778 -151.386)"/><path class="a" d="M0,223.033l8.663-3.3L7.352,218Z" transform="translate(0 -189.124)"/><path class="v" d="M203.2,75.576l11.6,2.768L210.922,72.9Z" transform="translate(-176.284 -63.244)"/><path class="r" d="M269.012,74.221l-2.331,4.61L262.8,73.4Z" transform="translate(-227.99 -63.677)"/><path class="o" d="M297.941,84.607l-2,2.384L292.1,84.21l2.331-4.61Z" transform="translate(-253.409 -69.056)"/><path class="w" d="M323.67,121.082l-.57-3.682-2,2.384Z" transform="translate(-278.567 -101.849)"/><path class="p" d="M323.18,140.182l.49-3.484-2.57-1.3Z" transform="translate(-278.567 -117.465)"/><path class="q" d="M321.895,140.089l1.285.093L321.1,135.4Z" transform="translate(-278.567 -117.465)"/><path class="l" d="M327.338,173.264l1.046-2.371L327.1,170.8Z" transform="translate(-283.772 -148.176)"/><path class="q" d="M321.1,172.6l1.033.662-.238-2.464Z" transform="translate(-278.567 -148.176)"/><path class="l" d="M321.537,185.486l.6-.424L321.1,184.4Z" transform="translate(-278.567 -159.974)"/><path class="l" d="M319.4,185.407l.662.079-.437-1.086Z" transform="translate(-277.092 -159.974)"/><path class="l" d="M311.1,185.5l1.1-.093.225-1.007Z" transform="translate(-269.892 -159.974)"/><path class="x" d="M314.4,193.086l.662-1.086.662.079Z" transform="translate(-272.755 -166.568)"/><path class="r" d="M310.9,136.142l1.351-.742.159.954Z" transform="translate(-269.718 -117.465)"/><path class="w" d="M288.1,117.658l3.02.265-2.49-3.523Z" transform="translate(-249.938 -99.247)"/><path class="n" d="M295.941,117.182,292.1,114.4l2.49,3.523Z" transform="translate(-253.409 -99.247)"/><path class="q" d="M249.755,117.658l-5.855,1.258,6.385-4.517Z" transform="translate(-211.593 -99.247)"/><path class="u" d="M201.1,93.9l5.219,7.285,6.385-4.517Z" transform="translate(-174.462 -81.462)"/><path class="y" d="M195.2,99.893l5.762,3.192L195.73,95.8Z" transform="translate(-169.344 -83.11)"/><path class="z" d="M248.955,140.7l-4.517,6.769-1.338-5.51Z" transform="translate(-210.899 -122.063)"/><path class="aa" d="M207.3,162.38l5.894-5.669-1.338-5.51Z" transform="translate(-179.841 -131.172)"/><path class="y" d="M213.439,200.044l-2.239.225,5.881-5.669Z" transform="translate(-183.225 -168.823)"/><path class="v" d="M208.473,244.677l-.834-4.477-2.239.225Z" transform="translate(-178.193 -208.383)"/><path class="u" d="M229.2,243.4l2.649,3.206-1.828,1.3Z" transform="translate(-198.84 -211.159)"/><path class="a" d="M238.425,276.358l-.4-4.358-1.828,1.3Z" transform="translate(-204.913 -235.971)"/><path class="a" d="M236.264,292.992l.861-1.219L234.9,288.7Z" transform="translate(-203.785 -250.459)"/><path class="ab" d="M293.9,2.477l.013,1.086-.755-.795-.848.689.146-1.086-1.06-.238.94-.556L291.864.6l1.02.4L293.347,0l.331,1.046,1.073-.252-.609.914.861.676Z" transform="translate(-252.801)"/><path class="ab" d="M354.9,159.864l.013,1.1-.755-.795-.848.676.146-1.073-1.06-.238.94-.556-.477-.98,1.02.384.477-.98.318,1.033,1.073-.238-.609.9.861.676Z" transform="translate(-305.721 -136.551)"/><path class="ab" d="M121.9,72.964l.013,1.1-.755-.795-.848.689.146-1.086-1.06-.238.94-.556-.477-.98,1.02.384.464-.98.331,1.046,1.073-.252-.609.9.861.689Z" transform="translate(-103.584 -61.162)"/><path class="ab" d="M188.6,313.877l.013,1.086-.755-.795-.848.689.146-1.086-1.06-.238.94-.556-.477-.98,1.02.4.464-.993.331,1.046,1.073-.252-.609.914.848.676Z" transform="translate(-161.449 -270.152)"/><path class="ab" d="M288.157,202.732l.066.689-.583-.358-.636.278.159-.676-.464-.517.7-.053.344-.6.265.636.676.146Z" transform="translate(-248.724 -174.809)"/></g></g></svg>